<?xml version="1.0" encoding="utf-8"?>
<!-- Generator: Adobe Illustrator 24.2.3, SVG Export Plug-In . SVG Version: 6.00 Build 0)  -->
<svg version="1.1" id="Layer_1" xmlns="http://www.w3.org/2000/svg" xmlns:xlink="http://www.w3.org/1999/xlink" x="0px" y="0px"
	 viewBox="0 0 612 792" style="enable-background:new 0 0 612 792;" xml:space="preserve">
<style type="text/css">
	.st0{filter:url(#drop-shadow);}
	.st1{fill:url(#SVGID_1_);}
	.st2{fill:none;stroke:#EADFCF;stroke-width:6.12;stroke-miterlimit:3.06;}
	.st3{fill:none;stroke:#B85C43;stroke-width:6.12;stroke-linecap:round;stroke-miterlimit:3.06;}
	.st4{fill:none;stroke:#CBB175;stroke-width:6.12;stroke-linecap:round;stroke-miterlimit:3.06;}
	.st5{fill:none;stroke:#73A38B;stroke-width:6.12;stroke-linecap:round;stroke-miterlimit:3.06;}
	.st6{fill:none;stroke:#3A584A;stroke-width:9.18;stroke-linecap:round;stroke-miterlimit:3.06;}
	.st7{fill:url(#SVGID_2_);stroke:#2A1B1F;stroke-width:7.65;stroke-linejoin:round;stroke-miterlimit:3.06;}
	.st8{fill:#FFFDF9;stroke:#2A1B1F;stroke-width:7.65;stroke-linejoin:round;stroke-miterlimit:3.06;}
	.st9{fill:url(#SVGID_3_);stroke:#2A1B1F;stroke-width:6.12;stroke-linejoin:round;stroke-miterlimit:3.06;}
	.st10{fill:#FFFDF9;stroke:#2A1B1F;stroke-width:6.12;stroke-linejoin:round;stroke-miterlimit:3.06;}
	.st11{fill:url(#SVGID_4_);stroke:#2A1B1F;stroke-width:4.59;stroke-linejoin:round;stroke-miterlimit:2.295;}
	.st12{fill:#FFFDF9;stroke:#2A1B1F;stroke-width:4.59;stroke-linejoin:round;stroke-miterlimit:2.295;}
	.st13{fill:url(#SVGID_5_);stroke:#2A1B1F;stroke-width:4.284;stroke-linejoin:round;stroke-miterlimit:2.142;}
	.st14{fill:#FFFDF9;stroke:#2A1B1F;stroke-width:4.284;stroke-linejoin:round;stroke-miterlimit:2.142;}
	.st15{fill:none;stroke:#2A1B1F;stroke-width:4.59;stroke-linecap:round;stroke-linejoin:round;stroke-miterlimit:3.06;}
	.st16{fill:url(#SVGID_6_);stroke:#2A1B1F;stroke-width:5.355;stroke-linecap:round;stroke-linejoin:round;stroke-miterlimit:3.06;}
	.st17{fill:#2A1B1F;}
	.st18{fill:#FFFFFF;}
	.st19{fill:none;stroke:#2A1B1F;stroke-width:3.825;stroke-linecap:round;stroke-linejoin:round;stroke-miterlimit:3.06;}
	.st20{fill:#E88A9A;}
	.st21{fill:url(#SVGID_7_);stroke:#2A1B1F;stroke-width:5.355;stroke-linecap:round;stroke-linejoin:round;stroke-miterlimit:3.06;}
	.st22{fill:none;stroke:#2A1B1F;stroke-width:3.06;stroke-linecap:round;stroke-linejoin:round;stroke-miterlimit:3.06;}
	.st23{opacity:0.6;filter:url(#glow);enable-background:new    ;}
	.st24{fill:#FFEAA7;}
	.st25{fill:#F39C12;stroke:#2A1B1F;stroke-width:3.825;stroke-linejoin:round;stroke-miterlimit:3.06;}
	.st26{fill:#F1C40F;stroke:#2A1B1F;stroke-width:2.295;stroke-miterlimit:3.06;}
	.st27{fill:#FFF3A8;stroke:#2A1B1F;stroke-width:2.295;stroke-miterlimit:3.06;}
	.st28{fill:#F39C12;stroke:#2A1B1F;stroke-width:2.295;stroke-miterlimit:3.06;}
	.st29{fill:#D68910;stroke:#2A1B1F;stroke-width:2.295;stroke-miterlimit:3.06;}
	.st30{fill:#B9770E;stroke:#2A1B1F;stroke-width:2.295;stroke-miterlimit:3.06;}
	.st31{fill:none;stroke:#F1C40F;stroke-width:3.06;stroke-linecap:round;stroke-miterlimit:3.06;}
	.st32{fill:#E63F25;}
	.st33{font-family:'CourierNewPS-BoldMT';}
	.st34{font-size:29px;}
	.st35{fill:none;}
	.st36{fill:#DE7226;}
	.st37{font-size:33px;}
</style>
<filter  height="200%" id="glow" width="200%" x="-50%" y="-50%">
	<feGaussianBlur  result="blur" stdDeviation="6"></feGaussianBlur>
	<feComposite  in="SourceGraphic" in2="blur" operator="over"></feComposite>
</filter>
<filter  height="130%" id="drop-shadow" width="130%" x="-10%" y="-10%">
	<feDropShadow  dx="0" dy="12" flood-color="#4a2e35" flood-opacity="0.12" stdDeviation="16"></feDropShadow>
</filter>
<g class="st0">
	
		<radialGradient id="SVGID_1_" cx="0.5" cy="791.5" r="0.5" gradientTransform="matrix(535.5 0 0 -535.5 38.25 424244.25)" gradientUnits="userSpaceOnUse">
		<stop  offset="0" style="stop-color:#FFFDF9"/>
		<stop  offset="1" style="stop-color:#F4EFE6"/>
	</radialGradient>
	<circle class="st1" cx="306" cy="396" r="267.8"/>
	<circle class="st2" cx="306" cy="396" r="267.8"/>
</g>
<g>
	<line class="st3" x1="202.7" y1="281.3" x2="237.1" y2="304.2"/>
	<line class="st4" x1="175.9" y1="342.4" x2="218" y2="350.1"/>
	<line class="st5" x1="172.1" y1="411.3" x2="214.2" y2="403.6"/>
	<line class="st3" x1="195.1" y1="480.1" x2="225.7" y2="453.4"/>
	<line class="st4" x1="241" y1="541.3" x2="260.1" y2="499.3"/>
	<path class="st6" d="M229.5,243c-76.5,61.2-76.5,137.7-7.7,191.3c61.2,45.9,22.9,137.7-22.9,153"/>
	<path class="st6" d="M183.6,265.9c68.9,53.6,53.6,145.4-15.3,191.3c-38.3,30.6,22.9,122.4,122.4,145.4"/>
</g>
<g id="main-gear">
	
		<linearGradient id="SVGID_2_" gradientUnits="userSpaceOnUse" x1="0" y1="792" x2="1" y2="791" gradientTransform="matrix(211.14 0 0 -186.66 200.43 148138.9219)">
		<stop  offset="0" style="stop-color:#73A38B"/>
		<stop  offset="1" style="stop-color:#486B5A"/>
	</linearGradient>
	<path class="st7" d="M298.4,304.2h15.3l3.8,19.1l15.3,3.8l15.3-11.5l11.5,7.6l-3.8,19.1l13,9.2l17.6-5.4l9.2,11.5L384,373l9.2,13.8
		l18.4,3.1v15.3l-18.4,3.1L384,422l11.5,15.3l-9.2,11.5l-17.6-5.4l-13,9.2l3.8,19.1l-11.5,7.6l-15.3-11.5l-15.3,3.8l-3.8,19.1h-15.3
		l-3.8-19.1l-15.3-3.8l-15.3,11.5l-11.5-7.6l3.8-19.1l-13-9.2l-17.6,5.4l-9.2-11.5L228,422l-9.2-13.8l-18.4-3.1v-15.3l18.4-3.1
		L228,373l-11.5-15.3l9.2-11.5l17.6,5.4l13-9.2l-3.8-19.1l11.5-7.6l15.3,11.5l15.3-3.8L298.4,304.2z"/>
	<circle class="st8" cx="306" cy="397.5" r="57.4"/>
</g>
<g transform="translate(480, 500)">
	
		<linearGradient id="SVGID_3_" gradientUnits="userSpaceOnUse" x1="-479.9958" y1="292.0042" x2="-478.9958" y2="291.0042" gradientTransform="matrix(91.8 0 0 -92.565 43927.4844 26974.7051)">
		<stop  offset="0" style="stop-color:#EEDAA2"/>
		<stop  offset="1" style="stop-color:#CBB175"/>
	</linearGradient>
	<path class="st9" d="M-89.9-54.3h7.7l2.3,9.2l7.7,4.6l8.4-5.4l6.1,5.4l-4.6,8.4l5.4,8.4l9.2-0.8l2.3,9.2l-8.4,5.4l1.5,9.2l7.7,6.1
		l-3.8,7.7l-9.2-2.3l-5.4,7.6l3.1,9.2l-8.4,5.4l-6.9-6.9l-8.4,3.1l-2.3,9.2h-9.2l-2.3-9.2l-8.4-3.1l-6.9,6.9l-6.1-5.4l3.1-9.2
		l-5.4-7.6l-9.2,2.3l-3.8-7.7l7.6-6.1l-1.5-9.2l-8.4-5.4l2.3-9.2l9.2,0.8l5.4-8.4l-4.6-8.4l6.1-5.4l8.4,5.4l7.7-4.6L-89.9-54.3z"/>
	<circle class="st10" cx="-89.9" cy="-8.4" r="21.4"/>
</g>
<g transform="translate(410, 580) scale(0.75)">
	
		<linearGradient id="SVGID_4_" gradientUnits="userSpaceOnUse" x1="-546.7166" y1="282.6723" x2="-545.7166" y2="281.6723" gradientTransform="matrix(68.85 0 0 -69.4238 37485.8164 19535.2715)">
		<stop  offset="0" style="stop-color:#EEDAA2"/>
		<stop  offset="1" style="stop-color:#CBB175"/>
	</linearGradient>
	<path class="st11" d="M-109.3-88.5h7.7l2.3,9.2l7.7,4.6l8.4-5.4l6.1,5.4l-4.6,8.4l5.4,8.4l9.2-0.8l2.3,9.2l-8.4,5.4l1.5,9.2
		l7.7,6.1l-3.8,7.6l-9.2-2.3l-5.4,7.6l3.1,9.2l-8.4,5.4l-6.9-6.9l-8.4,3.1l-2.3,9.2h-9.2l-2.3-9.2l-8.4-3.1l-6.9,6.9l-6.1-5.4
		l3.1-9.2l-5.4-7.6l-9.2,2.3l-3.8-7.6l7.6-6.1l-1.5-9.2l-8.4-5.4l2.3-9.2l9.2,0.8l5.4-8.4l-4.6-8.4l6.1-5.4l8.4,5.4l7.7-4.6
		L-109.3-88.5z"/>
	<circle class="st12" cx="-109.3" cy="-42.6" r="21.4"/>
</g>
<g transform="translate(535, 405) scale(0.7)">
	
		<linearGradient id="SVGID_5_" gradientUnits="userSpaceOnUse" x1="-764.2797" y1="552.8632" x2="-763.2797" y2="551.8632" gradientTransform="matrix(64.26 0 0 -64.7955 48909.6758 35788.4844)">
		<stop  offset="0" style="stop-color:#EEDAA2"/>
		<stop  offset="1" style="stop-color:#CBB175"/>
	</linearGradient>
	<path class="st13" d="M-156.7-34.2h7.6l2.3,9.2l7.7,4.6l8.4-5.4l6.1,5.4l-4.6,8.4l5.4,8.4l9.2-0.8l2.3,9.2l-8.4,5.4l1.5,9.2
		l7.7,6.1l-3.8,7.6l-9.2-2.3l-5.4,7.6l3.1,9.2l-8.4,5.4l-6.9-6.9l-8.4,3.1l-2.3,9.2h-9.2l-2.3-9.2l-8.4-3.1l-6.9,6.9l-6.1-5.4
		l3.1-9.2l-5.4-7.6l-9.2,2.3l-3.8-7.6l7.7-6.1l-1.5-9.2l-8.4-5.4l2.3-9.2l9.2,0.8l5.4-8.4l-4.6-8.4l6.1-5.4l8.4,5.4l7.6-4.6
		L-156.7-34.2z"/>
	<circle class="st14" cx="-156.7" cy="11.7" r="21.4"/>
</g>
<g id="center-bacterium">
	<line class="st15" x1="260.1" y1="357.8" x2="244.8" y2="346.3"/>
	<line class="st15" x1="252.4" y1="380.7" x2="233.3" y2="376.9"/>
	<line class="st15" x1="252.4" y1="403.6" x2="237.1" y2="411.3"/>
	<line class="st15" x1="263.9" y1="426.6" x2="248.6" y2="438.1"/>
	<line class="st15" x1="283" y1="445.7" x2="275.4" y2="461"/>
	<line class="st15" x1="328.9" y1="445.7" x2="336.6" y2="461"/>
	<line class="st15" x1="348.1" y1="426.6" x2="363.4" y2="438.1"/>
	<line class="st15" x1="359.5" y1="403.6" x2="374.9" y2="407.5"/>
	<line class="st15" x1="359.5" y1="380.7" x2="378.7" y2="376.9"/>
	<line class="st15" x1="351.9" y1="357.8" x2="367.2" y2="346.3"/>
	
		<linearGradient id="SVGID_6_" gradientUnits="userSpaceOnUse" x1="0" y1="792" x2="1" y2="791" gradientTransform="matrix(76.2658 -35.5633 -38.7964 -83.1991 30975.1836 66265.8359)">
		<stop  offset="0" style="stop-color:#803348"/>
		<stop  offset="1" style="stop-color:#4A1C28"/>
	</linearGradient>
	<path class="st16" d="M286.6,354.4L286.6,354.4c21.1-9.8,46.1-0.7,55.9,20.4l3.2,6.9c9.8,21.1,0.7,46.1-20.4,55.9l0,0
		c-21.1,9.8-46.1,0.7-55.9-20.4l-3.2-6.9C256.4,389.3,265.5,364.2,286.6,354.4z"/>
	<circle class="st17" cx="290.7" cy="392.2" r="5.4"/>
	<circle class="st18" cx="289.2" cy="390.6" r="1.9"/>
	<circle class="st17" cx="317.5" cy="380.7" r="5.4"/>
	<circle class="st18" cx="315.9" cy="379.2" r="1.9"/>
	<path class="st19" d="M298.4,399.8c4.1,5.1,8.7,3.8,13.8-3.8"/>
	<ellipse class="st20" cx="283" cy="399.8" rx="4.6" ry="3.1"/>
	<ellipse class="st20" cx="322.8" cy="388.4" rx="4.6" ry="3.1"/>
</g>
<g id="helper-bacterium">
	<line class="st19" x1="390.1" y1="273.6" x2="382.5" y2="262.1"/>
	<line class="st19" x1="409.3" y1="265.9" x2="409.3" y2="250.6"/>
	<line class="st19" x1="428.4" y1="273.6" x2="436" y2="262.1"/>
	<line class="st19" x1="443.7" y1="288.9" x2="455.2" y2="281.3"/>
	<line class="st19" x1="451.4" y1="311.9" x2="466.6" y2="311.9"/>
	<line class="st19" x1="447.5" y1="334.8" x2="462.8" y2="342.4"/>
	
		<linearGradient id="SVGID_7_" gradientUnits="userSpaceOnUse" x1="1.732224e-08" y1="792" x2="1" y2="791" gradientTransform="matrix(51.7253 13.8598 18.8097 -70.1987 -14496.8936 55865.2305)">
		<stop  offset="0" style="stop-color:#803348"/>
		<stop  offset="1" style="stop-color:#4A1C28"/>
	</linearGradient>
	<path class="st21" d="M426.2,274.8L426.2,274.8c14.3,3.8,22.8,18.5,18.9,32.8l-4.9,18.5c-3.8,14.3-18.5,22.8-32.8,18.9l0,0
		c-14.3-3.8-22.8-18.5-18.9-32.8l4.9-18.5C397.3,279.5,411.9,271,426.2,274.8z"/>
	<path class="st15" d="M436,327.1c10.2,0,19.1-2.6,26.8-7.6"/>
	<circle class="st17" cx="413.1" cy="304.2" r="3.8"/>
	<circle class="st18" cx="412.3" cy="302.7" r="1.4"/>
	<circle class="st17" cx="430.7" cy="308" r="3.8"/>
	<circle class="st18" cx="429.9" cy="306.5" r="1.4"/>
	<path class="st22" d="M419.2,313.4c3.1,3.1,6.1,3.6,9.2,1.5"/>
	<ellipse class="st20" cx="407.7" cy="309.6" rx="3.1" ry="1.9"/>
	<ellipse class="st20" cx="436" cy="314.1" rx="3.1" ry="1.9"/>
</g>
<g id="gem-charm" transform="translate(620, 290)">
	<g class="st23">
		<polygon class="st24" points="-145.7,5 -131.2,16.5 -136.5,35.6 -154.9,35.6 -160.2,16.5 		"/>
	</g>
	<polygon class="st25" points="-145.7,5 -131.2,16.5 -136.5,35.6 -154.9,35.6 -160.2,16.5 	"/>
	<polygon class="st26" points="-145.7,5 -145.7,21.8 -160.2,16.5 	"/>
	<polygon class="st27" points="-145.7,5 -145.7,21.8 -131.2,16.5 	"/>
	<polygon class="st28" points="-131.2,16.5 -145.7,21.8 -136.5,35.6 	"/>
	<polygon class="st29" points="-160.2,16.5 -145.7,21.8 -154.9,35.6 	"/>
	<polygon class="st30" points="-154.9,35.6 -145.7,21.8 -136.5,35.6 	"/>
	<line class="st31" x1="-145.7" y1="-1.1" x2="-145.7" y2="-5.7"/>
	<line class="st31" x1="-126.6" y1="14.2" x2="-122" y2="11.9"/>
	<line class="st31" x1="-130.4" y1="37.1" x2="-125.8" y2="41"/>
	<g id="gem-charm_1_" transform="translate(620, 290)">
		<line class="st31" x1="-867.9" y1="-345.7" x2="-867.9" y2="-350.3"/>
		<line class="st31" x1="-859.8" y1="-342.3" x2="-855.2" y2="-344.6"/>
		<line class="st31" x1="-863.6" y1="-333.2" x2="-859" y2="-329.4"/>
	</g>
</g>
<text transform="matrix(1 0 0 1 245.35 232)" class="st32 st33 st34">gingi</text>
<rect x="266" y="173" class="st35" width="58" height="0"/>
<text transform="matrix(1 0 0 1 271 264.31)" class="st36 st33 st37">CHARM</text>
</svg>
